<svg width="24" height="24" viewBox="0 0 24 24" fill="none" xmlns="http://www.w3.org/2000/svg">
<path fill-rule="evenodd" clip-rule="evenodd" d="M7 1C3.68629 1 1 3.68629 1 7V17C1 20.3137 3.68629 23 7 23H17C20.3137 23 23 20.3137 23 17V7C23 3.68629 20.3137 1 17 1H7ZM14.2857 9.14286C14.2857 10.3263 13.3263 11.2857 12.1429 11.2857C10.9594 11.2857 10 10.3263 10 9.14286C10 7.95939 10.9594 7 12.1429 7C13.3263 7 14.2857 7.95939 14.2857 9.14286ZM16.4286 14.8571C16.4286 16.0406 14.5098 17 12.1429 17C9.77592 17 7.85714 16.0406 7.85714 14.8571C7.85714 13.6737 9.77592 12.7143 12.1429 12.7143C14.5098 12.7143 16.4286 13.6737 16.4286 14.8571ZM5 14.5001C5 13.5886 6.36571 12.8367 8.12975 12.7279C7.2934 13.2949 6.78571 14.0405 6.78571 14.8572C6.78571 15.3202 6.94888 15.7604 7.24259 16.1581C5.92821 15.8945 5 15.2515 5 14.5001ZM17.0432 16.1581C17.3369 15.7604 17.5 15.3202 17.5 14.8572C17.5 14.0405 16.9924 13.2949 16.156 12.7279C17.9201 12.8367 19.2858 13.5886 19.2858 14.5001C19.2858 15.2515 18.3576 15.8945 17.0432 16.1581ZM15.3571 9.14286C15.3571 9.81456 15.1511 10.4381 14.7988 10.9538C15.0467 11.161 15.3659 11.2857 15.7143 11.2857C16.5032 11.2857 17.1428 10.6461 17.1428 9.85714C17.1428 9.06816 16.5032 8.42857 15.7143 8.42857C15.567 8.42857 15.4249 8.45086 15.2912 8.49224C15.3344 8.70236 15.3571 8.91996 15.3571 9.14286ZM8.99445 8.49224C8.86078 8.45086 8.71871 8.42857 8.57143 8.42857C7.78245 8.42857 7.14286 9.06816 7.14286 9.85714C7.14286 10.6461 7.78245 11.2857 8.57143 11.2857C8.91978 11.2857 9.23902 11.161 9.48693 10.9538C9.13461 10.4381 8.92857 9.81456 8.92857 9.14286C8.92857 8.91996 8.95126 8.70236 8.99445 8.49224Z" fill="#0E1113"/>
</svg>
