<svg width="24" height="24" viewBox="0 0 24 24" fill="none" xmlns="http://www.w3.org/2000/svg">
<path fill-rule="evenodd" clip-rule="evenodd" d="M12 6.98C10.5957 6.98 9.47 8.11272 9.47 9.51C9.47 10.8588 10.5236 11.9585 11.8587 12.0284C11.9506 12.0209 12.0487 12.0202 12.1439 12.0283C13.4732 11.9572 14.5213 10.8618 14.53 9.50788C14.5289 8.11307 13.3951 6.98 12 6.98ZM7.97 9.51C7.97 7.28728 9.7643 5.48 12 5.48C14.2242 5.48 16.03 7.28579 16.03 9.51V9.51424C16.0177 11.6826 14.3122 13.4557 12.1456 13.5296C12.1016 13.5311 12.0575 13.5287 12.0139 13.5225C12.0182 13.5231 12.0191 13.523 12.0163 13.5228C12.0137 13.5227 12.0094 13.5225 12.0037 13.5225C11.9915 13.5225 11.9801 13.5233 11.973 13.5242C11.9337 13.5291 11.8941 13.5309 11.8544 13.5296C9.69161 13.4558 7.97 11.6855 7.97 9.51Z" fill="#0E1113"/>
<path fill-rule="evenodd" clip-rule="evenodd" d="M7.44684 17.4235C6.67665 17.9422 6.24613 18.5359 6.07838 19.1C7.68457 20.445 9.74373 21.25 12 21.25C14.2563 21.25 16.3154 20.445 17.9216 19.1C17.7538 18.5356 17.323 17.9417 16.5521 17.4228C15.3419 16.6133 13.6963 16.185 12.0075 16.185C10.3195 16.185 8.66809 16.613 7.44684 17.4235ZM12.0075 14.685C13.9234 14.685 15.8774 15.1665 17.3871 16.1767L17.3887 16.1778C18.5914 16.987 19.3565 18.0854 19.4858 19.3007C19.511 19.5375 19.4222 19.7723 19.2465 19.9331C17.3338 21.6847 14.7949 22.75 12 22.75C9.20511 22.75 6.66624 21.6847 4.75349 19.9331C4.57782 19.7723 4.48901 19.5375 4.51421 19.3007C4.64349 18.0854 5.40863 16.987 6.61129 16.1778L6.61502 16.1753C8.13358 15.1666 10.0914 14.685 12.0075 14.685Z" fill="#0E1113"/>
<path fill-rule="evenodd" clip-rule="evenodd" d="M12 2.75C6.89137 2.75 2.75 6.89137 2.75 12C2.75 17.1086 6.89137 21.25 12 21.25C17.1086 21.25 21.25 17.1086 21.25 12C21.25 6.89137 17.1086 2.75 12 2.75ZM1.25 12C1.25 6.06294 6.06294 1.25 12 1.25C17.9371 1.25 22.75 6.06294 22.75 12C22.75 17.9371 17.9371 22.75 12 22.75C6.06294 22.75 1.25 17.9371 1.25 12Z" fill="#0E1113"/>
</svg>
