<svg width="24" height="24" viewBox="0 0 24 24" fill="none" xmlns="http://www.w3.org/2000/svg">
<path fill-rule="evenodd" clip-rule="evenodd" d="M5.26996 8.90994C5.26996 5.18573 8.29575 2.15994 12.02 2.15994C15.7342 2.15994 18.77 5.19573 18.77 8.90994V11.7999C18.77 12.0148 18.8186 12.3293 18.9108 12.6653C19.0018 12.9973 19.1194 13.2923 19.2264 13.4797L20.3731 15.3841C21.2786 16.8933 20.5547 18.8594 18.8865 19.4117C14.4226 20.9028 9.60617 20.9027 5.1423 19.4113L5.13951 19.4104C4.29711 19.1252 3.66535 18.5357 3.38288 17.7729C3.10008 17.0091 3.19629 16.1495 3.65732 15.3833L4.80575 13.4759C4.80601 13.4755 4.80626 13.475 4.80651 13.4746C4.91602 13.2905 5.03597 12.9966 5.12854 12.6631C5.22139 12.3286 5.26996 12.0146 5.26996 11.7999V8.90994ZM12.02 3.65994C9.12418 3.65994 6.76996 6.01416 6.76996 8.90994V11.7999C6.76996 12.1953 6.68854 12.6513 6.57388 13.0643C6.45917 13.4776 6.29446 13.908 6.09417 14.244L6.09249 14.2468L4.9426 16.1566C4.94256 16.1567 4.94264 16.1566 4.9426 16.1566C4.69375 16.5703 4.67986 16.9558 4.78954 17.252C4.89947 17.5489 5.16231 17.8341 5.61907 17.9891C9.77442 19.3771 14.257 19.3769 18.4123 17.9886L18.4146 17.9878C19.1653 17.7397 19.5009 16.8467 19.0872 16.1564C19.0871 16.1562 19.0873 16.1565 19.0872 16.1564L17.9302 14.2348C17.7381 13.9018 17.5772 13.4743 17.4642 13.0621C17.3513 12.6506 17.27 12.1951 17.27 11.7999V8.90994C17.27 6.02416 14.9057 3.65994 12.02 3.65994Z" fill="#0E1113"/>
<path fill-rule="evenodd" clip-rule="evenodd" d="M9.47167 2.92629C9.87112 1.90701 10.8628 1.18994 12.02 1.18994C13.1771 1.18994 14.1688 1.90701 14.5683 2.92629C14.6725 3.19236 14.6165 3.49457 14.4239 3.70562C14.2312 3.91667 13.9353 3.99988 13.6609 3.9202C13.3834 3.83966 13.1035 3.77889 12.8197 3.74449L12.8169 3.74415C11.9525 3.6361 11.1358 3.70023 10.3793 3.92013C10.1049 3.99991 9.80891 3.91676 9.61616 3.70571C9.42341 3.49466 9.36738 3.1924 9.47167 2.92629Z" fill="#0E1113"/>
<path fill-rule="evenodd" clip-rule="evenodd" d="M9.76996 19.0599C9.76996 19.6725 10.0248 20.2441 10.4303 20.6496C10.8358 21.0551 11.4074 21.3099 12.02 21.3099C13.2557 21.3099 14.27 20.2957 14.27 19.0599H15.77C15.77 21.1242 14.0842 22.8099 12.02 22.8099C10.9925 22.8099 10.0441 22.3847 9.36963 21.7103C8.69516 21.0358 8.26996 20.0874 8.26996 19.0599H9.76996Z" fill="#0E1113"/>
</svg>
