<svg width="24" height="24" viewBox="0 0 24 24" fill="none" xmlns="http://www.w3.org/2000/svg">
<path fill-rule="evenodd" clip-rule="evenodd" d="M9.31357 14.3388C9.32174 14.3237 9.33991 14.2971 9.37869 14.2589C9.47 14.169 9.63576 14.0578 9.89349 13.9504C10.4061 13.7368 11.1597 13.5893 12.0261 13.5893C12.8925 13.5893 13.6461 13.7368 14.1588 13.9504C14.4165 14.0578 14.5822 14.169 14.6735 14.2589C14.7123 14.2971 14.7305 14.3237 14.7387 14.3388C14.7305 14.3538 14.7123 14.3804 14.6735 14.4186C14.5822 14.5085 14.4165 14.6197 14.1588 14.7271C13.6461 14.9407 12.8925 15.0882 12.0261 15.0882C11.1597 15.0882 10.4061 14.9407 9.89349 14.7271C9.63576 14.6197 9.47 14.5085 9.37869 14.4186C9.33991 14.3804 9.32174 14.3538 9.31357 14.3388ZM9.38903 12.7397C10.0971 12.4447 11.0298 12.2777 12.0261 12.2777C13.0224 12.2777 13.9551 12.4447 14.6632 12.7397C15.0158 12.8866 15.344 13.0782 15.594 13.3246C15.8464 13.5731 16.0546 13.9163 16.0546 14.3388C16.0546 14.7612 15.8464 15.1044 15.594 15.3529C15.344 15.5993 15.0158 15.7909 14.6632 15.9378C13.9551 16.2328 13.0224 16.3998 12.0261 16.3998C11.0298 16.3998 10.0971 16.2328 9.38903 15.9378C9.03643 15.7909 8.70827 15.5993 8.45823 15.3529C8.20589 15.1044 7.99762 14.7612 7.99762 14.3388C7.99762 13.9163 8.20589 13.5731 8.45823 13.3246C8.70827 13.0782 9.03643 12.8866 9.38903 12.7397Z" fill="#0E1113"/>
<path fill-rule="evenodd" clip-rule="evenodd" d="M11.8407 8.31161C11.2716 8.31161 10.8102 8.773 10.8102 9.34216C10.8102 9.91131 11.2716 10.3727 11.8407 10.3727C12.4099 10.3727 12.8713 9.91131 12.8713 9.34216C12.8713 8.773 12.4099 8.31161 11.8407 8.31161ZM9.49856 9.34216C9.49856 8.04862 10.5472 7 11.8407 7C13.1342 7 14.1829 8.04862 14.1829 9.34216C14.1829 10.6357 13.1342 11.6843 11.8407 11.6843C10.5472 11.6843 9.49856 10.6357 9.49856 9.34216Z" fill="#0E1113"/>
<path fill-rule="evenodd" clip-rule="evenodd" d="M6.94552 9.98796C6.79533 9.09663 7.39615 8.2523 8.28749 8.10211C8.64464 8.04193 8.98296 8.28268 9.04314 8.63984C9.10332 8.99699 8.86257 9.33531 8.50542 9.39549C8.32839 9.42532 8.20906 9.59301 8.23889 9.77003C8.26872 9.94706 8.43641 10.0664 8.61343 10.0366C8.97059 9.97637 9.30891 10.2171 9.36909 10.5743C9.42927 10.9314 9.18852 11.2697 8.83137 11.3299C7.94003 11.4801 7.09571 10.8793 6.94552 9.98796Z" fill="#0E1113"/>
<path fill-rule="evenodd" clip-rule="evenodd" d="M16.8319 9.98597C16.9821 9.09463 16.3813 8.25031 15.4899 8.10012C15.1328 8.03994 14.7945 8.28069 14.7343 8.63784C14.6741 8.995 14.9148 9.33332 15.272 9.3935C15.449 9.42332 15.5684 9.59101 15.5385 9.76804C15.5087 9.94506 15.341 10.0644 15.164 10.0346C14.8068 9.97438 14.4685 10.2151 14.4083 10.5723C14.3481 10.9294 14.5889 11.2678 14.9461 11.3279C15.8374 11.4781 16.6817 10.8773 16.8319 9.98597Z" fill="#0E1113"/>
<path fill-rule="evenodd" clip-rule="evenodd" d="M15.6193 12.1974C15.5922 12.5585 15.863 12.8733 16.2242 12.9004C16.8712 12.9489 17.4108 13.1396 17.7694 13.3846C18.1339 13.6335 18.2407 13.8804 18.2407 14.0535C18.2407 14.1984 18.1694 14.3874 17.9357 14.5936C17.7005 14.8013 17.334 14.9916 16.8614 15.1069C16.5095 15.1928 16.2939 15.5476 16.3797 15.8995C16.4655 16.2514 16.8204 16.467 17.1723 16.3812C17.8013 16.2277 18.3746 15.9558 18.8038 15.5769C19.2345 15.1966 19.5523 14.6747 19.5523 14.0535C19.5523 13.2971 19.0867 12.696 18.5092 12.3015C17.9258 11.903 17.1538 11.6548 16.3223 11.5925C15.9611 11.5654 15.6464 11.8362 15.6193 12.1974Z" fill="#0E1113"/>
<path fill-rule="evenodd" clip-rule="evenodd" d="M8.43298 12.1974C8.46008 12.5585 8.18925 12.8733 7.82808 12.9004C7.18101 12.9489 6.64141 13.1396 6.28286 13.3846C5.91835 13.6335 5.81161 13.8804 5.81161 14.0535C5.81161 14.1984 5.88288 14.3874 6.11653 14.5936C6.35173 14.8013 6.7183 14.9916 7.19088 15.1069C7.54275 15.1928 7.7584 15.5476 7.67255 15.8995C7.58671 16.2514 7.23187 16.467 6.88 16.3812C6.25093 16.2277 5.67768 15.9558 5.24847 15.5769C4.81772 15.1966 4.5 14.6747 4.5 14.0535C4.5 13.2971 4.96559 12.696 5.54305 12.3015C6.12647 11.903 6.89848 11.6548 7.72995 11.5925C8.09113 11.5654 8.40589 11.8362 8.43298 12.1974Z" fill="#0E1113"/>
<path fill-rule="evenodd" clip-rule="evenodd" d="M17 2.5H7C4.51472 2.5 2.5 4.51472 2.5 7V17C2.5 19.4853 4.51472 21.5 7 21.5H17C19.4853 21.5 21.5 19.4853 21.5 17V7C21.5 4.51472 19.4853 2.5 17 2.5ZM7 1C3.68629 1 1 3.68629 1 7V17C1 20.3137 3.68629 23 7 23H17C20.3137 23 23 20.3137 23 17V7C23 3.68629 20.3137 1 17 1H7Z" fill="#0E1113"/>
</svg>
