<svg width="18" height="18" viewBox="0 0 18 18" fill="none" xmlns="http://www.w3.org/2000/svg">
<path fill-rule="evenodd" clip-rule="evenodd" d="M17.9999 9.20419C17.9999 8.56601 17.9415 7.95237 17.8329 7.36328H9.18359V10.8446H14.1261C13.9132 11.9696 13.2662 12.9228 12.2935 13.561V15.8192H15.2615C16.9981 14.2524 17.9999 11.9451 17.9999 9.20419Z" fill="#4285F4"/>
<path fill-rule="evenodd" clip-rule="evenodd" d="M9.18343 18C11.663 18 13.7419 17.1941 15.2614 15.8195L12.2934 13.5613C11.471 14.1013 10.4191 14.4204 9.18343 14.4204C6.7915 14.4204 4.76692 12.8372 4.04474 10.71H0.976562V13.0418C2.48769 15.9831 5.59345 18 9.18343 18Z" fill="#34A853"/>
<path fill-rule="evenodd" clip-rule="evenodd" d="M4.04499 10.7098C3.86132 10.1698 3.75696 9.59301 3.75696 8.99983C3.75696 8.40665 3.86132 7.82983 4.04499 7.28983V4.95801H0.976809C0.354824 6.17301 0 7.54755 0 8.99983C0 10.4521 0.354824 11.8266 0.976809 13.0416L4.04499 10.7098Z" fill="#FBBC05"/>
<path fill-rule="evenodd" clip-rule="evenodd" d="M9.18343 3.57955C10.5318 3.57955 11.7423 4.03364 12.6941 4.92546L15.3281 2.34409C13.7377 0.891818 11.6588 0 9.18343 0C5.59345 0 2.48769 2.01682 0.976562 4.95818L4.04474 7.29C4.76691 5.16273 6.7915 3.57955 9.18343 3.57955Z" fill="#EA4335"/>
</svg>
